<svg xmlns="http://www.w3.org/2000/svg" xmlns:xlink="http://www.w3.org/1999/xlink" preserveAspectRatio="xMidYMid" width="200" height="253" viewBox="0 0 200 253">
  <defs>
    <style>
      .cls-1 {
        fill: #fbd04f;
      }

      .cls-1, .cls-2, .cls-3 {
        fill-rule: evenodd;
      }

      .cls-2 {
        fill: #f79e4f;
      }

      .cls-3 {
        fill: #e5773e;
      }
    </style>
  </defs>
  <path d="M110.000,1.000 C124.402,0.600 154.034,-2.005 149.000,16.000 C142.396,39.621 34.135,85.271 0.000,61.000 C0.000,58.334 0.000,55.666 0.000,53.000 C13.230,28.343 50.931,15.592 80.000,7.000 C89.999,5.000 100.001,3.000 110.000,1.000 Z" class="cls-1"/>
  <path d="M149.000,12.000 C156.999,41.997 165.001,72.003 173.000,102.000 C160.564,103.408 154.563,112.620 155.000,127.000 C158.697,136.233 169.783,150.664 184.000,142.000 C189.333,164.331 194.667,186.669 200.000,209.000 C189.292,229.992 113.748,267.083 80.000,247.000 C69.334,222.003 58.666,196.998 48.000,172.000 C49.666,170.667 51.334,169.333 53.000,168.000 C52.000,165.334 51.000,162.666 50.000,160.000 C45.786,160.140 44.176,161.942 43.000,159.000 C29.335,127.003 15.665,94.997 2.000,63.000 C41.423,82.235 142.994,40.387 149.000,12.000 ZM137.000,46.000 C136.000,47.333 135.000,48.667 134.000,50.000 C134.667,52.333 135.333,54.667 136.000,57.000 C138.000,57.333 140.000,57.667 142.000,58.000 C143.333,57.000 144.667,56.000 146.000,55.000 C145.702,49.412 144.981,49.162 143.000,46.000 C141.000,46.000 139.000,46.000 137.000,46.000 ZM78.000,63.000 C71.946,66.592 62.763,72.843 68.000,84.000 C69.978,88.496 72.190,90.304 77.000,92.000 C80.333,92.000 83.667,92.000 87.000,92.000 C100.115,87.500 99.168,68.752 87.000,64.000 C84.000,63.667 81.000,63.333 78.000,63.000 ZM174.000,107.000 C174.333,107.667 174.667,108.333 175.000,109.000 C174.667,108.333 174.333,107.667 174.000,107.000 ZM40.000,109.000 C38.000,111.333 36.000,113.667 34.000,116.000 C34.000,119.333 34.000,122.667 34.000,126.000 C36.000,127.667 38.000,129.333 40.000,131.000 C43.000,130.667 46.000,130.333 49.000,130.000 C52.416,128.384 52.346,128.372 54.000,125.000 C56.379,120.162 54.717,117.096 53.000,112.000 C48.939,110.060 46.628,109.091 40.000,109.000 ZM120.000,122.000 C119.000,123.333 118.000,124.667 117.000,126.000 C116.667,127.333 116.333,128.667 116.000,130.000 C117.000,131.333 118.000,132.667 119.000,134.000 C121.000,133.667 123.000,133.333 125.000,133.000 C126.000,132.333 127.000,131.667 128.000,131.000 C127.702,125.412 126.981,125.162 125.000,122.000 C123.334,122.000 121.666,122.000 120.000,122.000 ZM179.000,126.000 C179.333,126.667 179.667,127.333 180.000,128.000 C179.667,127.333 179.333,126.667 179.000,126.000 ZM93.000,171.000 C79.102,177.592 65.220,198.570 84.000,211.000 C101.750,222.748 113.688,206.512 119.000,195.000 C118.089,179.546 109.940,170.583 93.000,171.000 ZM171.000,175.000 C169.000,177.000 167.000,179.000 165.000,181.000 C165.307,188.279 167.034,188.975 170.000,193.000 C172.666,192.667 175.334,192.333 178.000,192.000 C185.701,188.422 182.800,180.911 179.000,176.000 C178.333,175.667 177.667,175.333 177.000,175.000 C175.000,175.000 173.000,175.000 171.000,175.000 Z" class="cls-2"/>
  <path d="M138.000,45.000 C143.762,47.013 145.760,47.143 147.000,54.000 C144.667,55.666 142.333,57.333 140.000,59.000 C138.000,57.667 136.000,56.333 134.000,55.000 C134.000,53.000 134.000,51.000 134.000,49.000 C135.333,47.667 136.667,46.333 138.000,45.000 ZM78.000,62.000 C82.000,62.667 86.000,63.333 90.000,64.000 C92.666,68.333 95.334,72.667 98.000,77.000 C96.259,82.794 94.705,86.721 92.000,91.000 C87.740,92.342 80.188,94.337 75.000,92.000 C69.297,89.544 63.807,79.537 68.000,71.000 C70.439,66.447 74.621,65.451 78.000,62.000 ZM162.000,106.000 C163.333,106.000 171.667,101.000 173.000,101.000 C173.000,101.667 173.000,102.333 173.000,103.000 C176.666,116.665 180.334,130.335 184.000,144.000 C176.852,145.389 171.941,145.821 165.000,144.000 C151.740,127.417 150.359,119.947 162.000,106.000 ZM41.000,108.000 C49.539,108.838 52.041,110.912 56.000,116.000 C56.151,126.860 52.603,131.774 42.000,132.000 C39.117,130.943 36.062,128.013 33.000,125.000 C33.333,121.667 33.667,118.333 34.000,115.000 C35.958,111.240 38.300,110.753 41.000,108.000 ZM120.000,121.000 C122.666,122.333 125.501,121.320 128.000,125.000 C129.111,131.302 128.140,134.123 121.000,135.000 C116.654,133.002 117.000,130.333 115.000,128.000 C116.667,125.667 118.333,123.333 120.000,121.000 ZM45.000,159.000 C48.000,160.333 51.000,161.667 54.000,163.000 C53.000,166.000 52.000,169.000 51.000,172.000 C50.000,172.000 49.000,172.000 48.000,172.000 C47.667,171.000 47.333,170.000 47.000,169.000 C44.642,165.386 44.360,163.488 45.000,159.000 ZM94.000,170.000 C119.496,170.458 125.621,194.115 111.000,211.000 C93.954,217.502 80.521,216.650 76.000,201.000 C70.750,183.181 84.746,176.735 94.000,170.000 ZM172.000,174.000 C178.182,175.031 180.087,177.121 184.000,180.000 C183.667,182.333 183.333,184.667 183.000,187.000 C181.198,190.955 179.606,191.947 176.000,194.000 C172.338,193.949 169.021,192.549 166.000,190.000 C165.333,187.000 164.667,184.000 164.000,181.000 C166.666,178.667 169.334,176.333 172.000,174.000 Z" class="cls-3"/>
</svg>
