<?xml version="1.0" standalone="yes"?>
<svg xmlns="http://www.w3.org/2000/svg" width="500" height="500">
<path style="fill:#ffffff; stroke:none;" d="M0 0L0 500L500 500L500 0L0 0z"/>
<path style="fill:#fdddb8; stroke:none;" d="M266 124L266 125L284 125L266 124M256 125L256 126L260 126L256 125z"/>
<path style="fill:#fbd14f; stroke:none;" d="M260 125.425C228.24 129.748 195.899 140.393 169 158.079C165.43 160.426 162.075 163.068 159.004 166.039C157.092 167.889 155.177 169.812 153.649 172C140.674 190.58 170.466 192.7 182 191.91C215.07 189.646 251.143 178.187 279 160.135C282.834 157.651 286.597 154.879 289.999 151.826C292.322 149.742 294.58 147.492 296.467 145C312.811 123.416 271.39 123.875 260 125.425z"/>
<path style="fill:#fdddb8; stroke:none;" d="M287.667 125.333L288.333 125.667L287.667 125.333M250 126L250 127L253 127L250 126M291 126L292 127L291 126M245.667 127.333L246.333 127.667L245.667 127.333M294 127L295 128L294 127M240.667 128.333L241.333 128.667L240.667 128.333M237 129L238 130L237 129M297 129L298 130L297 129M233 130L234 131L233 130M298 130L299 131L298 130M229.667 131.333L230.333 131.667L229.667 131.333M226 132L227 133L226 132M299 132L300 133L299 132M222.667 133.333L223.333 133.667L222.667 133.333M219.667 134.333L220.333 134.667L219.667 134.333M300 134L301 135L300 134M216.667 135.333L217.333 135.667L216.667 135.333z"/>
<path style="fill:#fbc88b; stroke:none;" d="M300.333 135.667L300.667 136.333L300.333 135.667z"/>
<path style="fill:#fdddb8; stroke:none;" d="M213.667 136.333L214.333 136.667L213.667 136.333M211 137L212 138L211 137z"/>
<path style="fill:#f4994d; stroke:none;" d="M300 137C295.737 150.351 280.48 158.895 269 165.421C238.973 182.49 185.149 203.368 152 186C169.903 232.146 190.359 277.885 210.694 323C215.91 334.57 220.691 346.347 225.719 358C227.838 362.911 229.473 369.846 234.108 372.995C240.459 377.31 249.747 376.034 257 375.999C280.731 375.885 307.639 366.075 328 354.421C336.069 349.803 348.541 343.005 350.591 333C351.737 327.408 348.807 320.344 347.29 315C344.19 304.077 341.381 293.015 338.627 282C330.182 248.229 321.242 214.606 312.151 181C308.516 167.563 307.242 148.856 300 137z"/>
<path style="fill:#fdddb8; stroke:none;" d="M208 138L209 139L208 138M301 138L302 139L301 138M205 139L206 140L205 139z"/>
<path style="fill:#fbc88b; stroke:none;" d="M301 139L302 140L301 139z"/>
<path style="fill:#fdddb8; stroke:none;" d="M202.667 140.333L203.333 140.667L202.667 140.333M200 141L201 142L200 141M198 142L199 143L198 142M302 142L303 143L302 142M195 143L196 144L195 143z"/>
<path style="fill:#fbc88b; stroke:none;" d="M302 143L303 144L302 143z"/>
<path style="fill:#fdddb8; stroke:none;" d="M193 144L194 145L193 144M191 145L192 146L191 145M189 146L190 147L189 146M303 146L304 147L303 146M187 147L188 148L187 147z"/>
<path style="fill:#fbc88b; stroke:none;" d="M303 147L304 148L303 147z"/>
<path style="fill:#fdddb8; stroke:none;" d="M185 148L186 149L185 148M183 149L184 150L183 149M304.333 149.667L304.667 150.333L304.333 149.667M180 151L181 152L180 151z"/>
<path style="fill:#fbc88b; stroke:none;" d="M304 151L305 152L304 151z"/>
<path style="fill:#fdddb8; stroke:none;" d="M178 152L179 153L178 152M176 153L177 154L176 153M305 153L306 154L305 153z"/>
<path style="fill:#fbc88b; stroke:none;" d="M305.333 154.667L305.667 155.333L305.333 154.667z"/>
<path style="fill:#fdddb8; stroke:none;" d="M173 155L174 156L173 155M171 156L172 157L171 156M306 157L307 158L306 157M168 158L169 159L168 158z"/>
<path style="fill:#fbc88b; stroke:none;" d="M306.333 158.667L306.667 159.333L306.333 158.667z"/>
<path style="fill:#fdddb8; stroke:none;" d="M165 160L166 161L165 160M164 161L165 162L164 161M307 161L308 162L307 161z"/>
<path style="fill:#fbc88b; stroke:none;" d="M307 162L308 163L307 162z"/>
<path style="fill:#fdddb8; stroke:none;" d="M160 164L161 165L160 164M159 165L160 166L159 165M308 165L309 166L308 165M158 166L159 167L158 166z"/>
<path style="fill:#fbc88b; stroke:none;" d="M308 166L309 167L308 166z"/>
<path style="fill:#fdddb8; stroke:none;" d="M157 167L158 168L157 167M156 168L157 169L156 168M155 169L156 170L155 169M309 169L310 170L309 169z"/>
<path style="fill:#fbc88b; stroke:none;" d="M309 170L310 171L309 170z"/>
<path style="fill:#fdddb8; stroke:none;" d="M310.333 172.667L310.667 173.333L310.333 172.667M152 173L153 174L152 173z"/>
<path style="fill:#fbc88b; stroke:none;" d="M310 174L311 175L310 174z"/>
<path style="fill:#fdddb8; stroke:none;" d="M151 175L152 176L151 175M311 176L312 177L311 176M150.333 177.667L150.667 178.333L150.333 177.667z"/>
<path style="fill:#fbc88b; stroke:none;" d="M311.333 177.667L311.667 178.333L311.333 177.667M234 180L235 181L234 180z"/>
<path style="fill:#fdddb8; stroke:none;" d="M312 180L313 181L312 180z"/>
<path style="fill:#fbc88b; stroke:none;" d="M231 181L232 182L231 181M312.333 181.667L312.667 182.333L312.333 181.667z"/>
<path style="fill:#fdddb8; stroke:none;" d="M150.333 182.667L150.667 183.333L150.333 182.667z"/>
<path style="fill:#fbc88b; stroke:none;" d="M221 184L222 185L221 184z"/>
<path style="fill:#fdddb8; stroke:none;" d="M313 184L314 185L313 184M151 185L152 186L151 185z"/>
<path style="fill:#fbc88b; stroke:none;" d="M313 185L314 186L313 185M152 187L153 188L152 187z"/>
<path style="fill:#fdddb8; stroke:none;" d="M314 188L315 189L314 188z"/>
<path style="fill:#fbc88b; stroke:none;" d="M153 189L154 190L153 189M200 189L201 190L200 189M314 189L315 190L314 189z"/>
<path style="fill:#fdddb8; stroke:none;" d="M153 190L154 191L153 190z"/>
<path style="fill:#fbc88b; stroke:none;" d="M185 191L186 192L185 191z"/>
<path style="fill:#fdddb8; stroke:none;" d="M154 192L155 193L154 192M315 192L316 193L315 192z"/>
<path style="fill:#fbc88b; stroke:none;" d="M315 193L316 194L315 193M155 194L156 195L155 194z"/>
<path style="fill:#fdddb8; stroke:none;" d="M316.333 195.667L316.667 196.333L316.333 195.667z"/>
<path style="fill:#fbc88b; stroke:none;" d="M156 196L157 197L156 196z"/>
<path style="fill:#fdddb8; stroke:none;" d="M156 197L157 198L156 197z"/>
<path style="fill:#fbc88b; stroke:none;" d="M316 197L317 198L316 197z"/>
<path style="fill:#fdddb8; stroke:none;" d="M157 199L158 200L157 199M317 199L318 200L317 199z"/>
<path style="fill:#fbc88b; stroke:none;" d="M317.333 200.667L317.667 201.333L317.333 200.667M158 201L159 202L158 201M159 203L160 204L159 203z"/>
<path style="fill:#fdddb8; stroke:none;" d="M318 203L319 204L318 203M159 204L160 205L159 204z"/>
<path style="fill:#fbc88b; stroke:none;" d="M318.333 204.667L318.667 205.333L318.333 204.667z"/>
<path style="fill:#fdddb8; stroke:none;" d="M160 206L161 207L160 206M319 207L320 208L319 207z"/>
<path style="fill:#fbc88b; stroke:none;" d="M161 208L162 209L161 208M319 208L320 209L319 208M162 210L163 211L162 210z"/>
<path style="fill:#fdddb8; stroke:none;" d="M162 211L163 212L162 211M320 211L321 212L320 211z"/>
<path style="fill:#fbc88b; stroke:none;" d="M320 212L321 213L320 212z"/>
<path style="fill:#fdddb8; stroke:none;" d="M163 213L164 214L163 213z"/>
<path style="fill:#fbc88b; stroke:none;" d="M164 215L165 216L164 215z"/>
<path style="fill:#fdddb8; stroke:none;" d="M321 215L322 216L321 215z"/>
<path style="fill:#fbc88b; stroke:none;" d="M321 216L322 217L321 216M165 217L166 218L165 217z"/>
<path style="fill:#fdddb8; stroke:none;" d="M165 218L166 219L165 218M322.333 218.667L322.667 219.333L322.333 218.667M166 220L167 221L166 220z"/>
<path style="fill:#fbc88b; stroke:none;" d="M322 220L323 221L322 220M167 222L168 223L167 222z"/>
<path style="fill:#fdddb8; stroke:none;" d="M323 222L324 223L323 222z"/>
<path style="fill:#fbc88b; stroke:none;" d="M323.333 223.667L323.667 224.333L323.333 223.667M168 224L169 225L168 224z"/>
<path style="fill:#fdddb8; stroke:none;" d="M168 225L169 226L168 225z"/>
<path style="fill:#fbc88b; stroke:none;" d="M324 226L325 227L324 226z"/>
<path style="fill:#fdddb8; stroke:none;" d="M169 227L170 228L169 227z"/>
<path style="fill:#fbc88b; stroke:none;" d="M170 229L171 230L170 229M325 230L326 231L325 230M171 231L172 232L171 231z"/>
<path style="fill:#fdddb8; stroke:none;" d="M171 232L172 233L171 232M326 233L327 234L326 233M172 234L173 235L172 234z"/>
<path style="fill:#fbc88b; stroke:none;" d="M326 234L327 235L326 234M173 236L174 237L173 236z"/>
<path style="fill:#fdddb8; stroke:none;" d="M327 237L328 238L327 237z"/>
<path style="fill:#fbc88b; stroke:none;" d="M174 238L175 239L174 238M327 238L328 239L327 238z"/>
<path style="fill:#fdddb8; stroke:none;" d="M174 239L175 240L174 239M175 241L176 242L175 241M328 241L329 242L328 241z"/>
<path style="fill:#fbc88b; stroke:none;" d="M176 243L177 244L176 243M177 245L178 246L177 245M329 245L330 246L329 245z"/>
<path style="fill:#fdddb8; stroke:none;" d="M177 246L178 247L177 246M178 248L179 249L178 248z"/>
<path style="fill:#fbc88b; stroke:none;" d="M330 249L331 250L330 249M179 250L180 251L179 250M180 252L181 253L180 252z"/>
<path style="fill:#fdddb8; stroke:none;" d="M331 252L332 253L331 252M180 253L181 254L180 253z"/>
<path style="fill:#fbc88b; stroke:none;" d="M331 253L332 254L331 253z"/>
<path style="fill:#fdddb8; stroke:none;" d="M181 255L182 256L181 255M332 256L333 257L332 256z"/>
<path style="fill:#fbc88b; stroke:none;" d="M182 257L183 258L182 257M332 257L333 258L332 257M183 259L184 260L183 259z"/>
<path style="fill:#fdddb8; stroke:none;" d="M183 260L184 261L183 260M333 260L334 261L333 260M184 262L185 263L184 262z"/>
<path style="fill:#fbc88b; stroke:none;" d="M185 264L186 265L185 264M334 264L335 265L334 264M186 266L187 267L186 266z"/>
<path style="fill:#fdddb8; stroke:none;" d="M186 267L187 268L186 267M335 268L336 269L335 268M187 269L188 270L187 269z"/>
<path style="fill:#fbc88b; stroke:none;" d="M335 269L336 270L335 269M188 271L189 272L188 271z"/>
<path style="fill:#fdddb8; stroke:none;" d="M336 272L337 273L336 272z"/>
<path style="fill:#fbc88b; stroke:none;" d="M189 273L190 274L189 273M336 273L337 274L336 273z"/>
<path style="fill:#fdddb8; stroke:none;" d="M189 274L190 275L189 274M190 276L191 277L190 276M337 276L338 277L337 276z"/>
<path style="fill:#fbc88b; stroke:none;" d="M337 277L338 278L337 277M191 278L192 279L191 278M192 280L193 281L192 280z"/>
<path style="fill:#fdddb8; stroke:none;" d="M338 280L339 281L338 280M192 281L193 282L192 281z"/>
<path style="fill:#fbc88b; stroke:none;" d="M338 281L339 282L338 281z"/>
<path style="fill:#fdddb8; stroke:none;" d="M193 283L194 284L193 283M339.333 283.667L339.667 284.333L339.333 283.667z"/>
<path style="fill:#fbc88b; stroke:none;" d="M339 285L340 286L339 285z"/>
<path style="fill:#fdddb8; stroke:none;" d="M194 286L195 287L194 286M340 287L341 288L340 287z"/>
<path style="fill:#fbc88b; stroke:none;" d="M195 288L196 289L195 288M340.333 288.667L340.667 289.333L340.333 288.667M196 290L197 291L196 290z"/>
<path style="fill:#fdddb8; stroke:none;" d="M341 291L342 292L341 291z"/>
<path style="fill:#fbc88b; stroke:none;" d="M341 292L342 293L341 292z"/>
<path style="fill:#fdddb8; stroke:none;" d="M197 293L198 294L197 293z"/>
<path style="fill:#fbc88b; stroke:none;" d="M198 295L199 296L198 295z"/>
<path style="fill:#fdddb8; stroke:none;" d="M342 295L343 296L342 295z"/>
<path style="fill:#fbc88b; stroke:none;" d="M342 296L343 297L342 296z"/>
<path style="fill:#fdddb8; stroke:none;" d="M199 297L200 298L199 297z"/>
<path style="fill:#fbc88b; stroke:none;" d="M200 299L201 300L200 299z"/>
<path style="fill:#fdddb8; stroke:none;" d="M343 299L344 300L343 299z"/>
<path style="fill:#fbc88b; stroke:none;" d="M343 300L344 301L343 300M201 301L202 302L201 301z"/>
<path style="fill:#fdddb8; stroke:none;" d="M201 302L202 303L201 302M344.333 302.667L344.667 303.333L344.333 302.667M202 304L203 305L202 304z"/>
<path style="fill:#fbc88b; stroke:none;" d="M344 304L345 305L344 304M203 306L204 307L203 306z"/>
<path style="fill:#fdddb8; stroke:none;" d="M345 306L346 307L345 306z"/>
<path style="fill:#fbc88b; stroke:none;" d="M345.333 307.667L345.667 308.333L345.333 307.667M204 308L205 309L204 308z"/>
<path style="fill:#fdddb8; stroke:none;" d="M204 309L205 310L204 309M346 310L347 311L346 310M205 311L206 312L205 311z"/>
<path style="fill:#fbc88b; stroke:none;" d="M346.333 311.667L346.667 312.333L346.333 311.667M206 313L207 314L206 313z"/>
<path style="fill:#fdddb8; stroke:none;" d="M347 314L348 315L347 314z"/>
<path style="fill:#fbc88b; stroke:none;" d="M207 315L208 316L207 315M347 315L348 316L347 315z"/>
<path style="fill:#fdddb8; stroke:none;" d="M207 316L208 317L207 316M208 318L209 319L208 318M348 318L349 319L348 318z"/>
<path style="fill:#fbc88b; stroke:none;" d="M348 319L349 320L348 319M209 320L210 321L209 320M210 322L211 323L210 322z"/>
<path style="fill:#fdddb8; stroke:none;" d="M349 322L350 323L349 322M210 323L211 324L210 323z"/>
<path style="fill:#fbc88b; stroke:none;" d="M349 323L350 324L349 323M211 324L212 325L211 324z"/>
<path style="fill:#fdddb8; stroke:none;" d="M211 325L212 326L211 325M350.333 325.667L350.667 326.333L350.333 325.667z"/>
<path style="fill:#fbc88b; stroke:none;" d="M212 327L213 328L212 327M350 327L351 328L350 327M213 329L214 330L213 329z"/>
<path style="fill:#fdddb8; stroke:none;" d="M351 329L351 333L352 333L351 329M213 330L214 331L213 330z"/>
<path style="fill:#fbc88b; stroke:none;" d="M214 331L215 332L214 331z"/>
<path style="fill:#fdddb8; stroke:none;" d="M214 332L215 333L214 332z"/>
<path style="fill:#fbc88b; stroke:none;" d="M215 334L216 335L215 334M350 334L351 335L350 334z"/>
<path style="fill:#fdddb8; stroke:none;" d="M350 335L351 336L350 335z"/>
<path style="fill:#fbc88b; stroke:none;" d="M216 336L217 337L216 336M349 336L350 337L349 336z"/>
<path style="fill:#fdddb8; stroke:none;" d="M216 337L217 338L216 337M349 337L350 338L349 337z"/>
<path style="fill:#fbc88b; stroke:none;" d="M217 338L218 339L217 338z"/>
<path style="fill:#fdddb8; stroke:none;" d="M348 338L349 339L348 338M217 339L218 340L217 339z"/>
<path style="fill:#fbc88b; stroke:none;" d="M347 339L348 340L347 339M346 340L347 341L346 340z"/>
<path style="fill:#fdddb8; stroke:none;" d="M218 341L219 342L218 341z"/>
<path style="fill:#fbc88b; stroke:none;" d="M345 341L346 342L345 341M344 342L345 343L344 342M219 343L220 344L219 343M343 343L344 344L343 343z"/>
<path style="fill:#fdddb8; stroke:none;" d="M219 344L220 345L219 344z"/>
<path style="fill:#fbc88b; stroke:none;" d="M342 344L343 345L342 344M220 345L221 346L220 345M341 345L342 346L341 345z"/>
<path style="fill:#fdddb8; stroke:none;" d="M220 346L221 347L220 346M340 346L341 347L340 346M221 348L222 349L221 348z"/>
<path style="fill:#fbc88b; stroke:none;" d="M337 348L338 349L337 348z"/>
<path style="fill:#fdddb8; stroke:none;" d="M336 349L337 350L336 349z"/>
<path style="fill:#fbc88b; stroke:none;" d="M222 350L223 351L222 350M334 350L335 351L334 350z"/>
<path style="fill:#fdddb8; stroke:none;" d="M333 351L334 352L333 351z"/>
<path style="fill:#fbc88b; stroke:none;" d="M223 352L224 353L223 352M331 352L332 353L331 352z"/>
<path style="fill:#fdddb8; stroke:none;" d="M223 353L224 354L223 353z"/>
<path style="fill:#fbc88b; stroke:none;" d="M329 353L330 354L329 353M327 354L328 355L327 354z"/>
<path style="fill:#fdddb8; stroke:none;" d="M224 355L225 356L224 355M326 355L327 356L326 355M324 356L325 357L324 356z"/>
<path style="fill:#fbc88b; stroke:none;" d="M225 357L226 358L225 357z"/>
<path style="fill:#fdddb8; stroke:none;" d="M322 357L323 358L322 357M320 358L321 359L320 358z"/>
<path style="fill:#fbc88b; stroke:none;" d="M226 359L227 360L226 359z"/>
<path style="fill:#fdddb8; stroke:none;" d="M318 359L319 360L318 359M226 360L227 361L226 360z"/>
<path style="fill:#fbc88b; stroke:none;" d="M315 360L316 361L315 360z"/>
<path style="fill:#fdddb8; stroke:none;" d="M316 360L317 361L316 360z"/>
<path style="fill:#fbc88b; stroke:none;" d="M313 361L314 362L313 361z"/>
<path style="fill:#fdddb8; stroke:none;" d="M314 361L315 362L314 361M227 362L228 363L227 362z"/>
<path style="fill:#fbc88b; stroke:none;" d="M311 362L312 363L311 362z"/>
<path style="fill:#fdddb8; stroke:none;" d="M312 362L313 363L312 362M309 363L310 364L309 363z"/>
<path style="fill:#fbc88b; stroke:none;" d="M228 364L229 365L228 364M306 364L307 365L306 364z"/>
<path style="fill:#fdddb8; stroke:none;" d="M307 364L308 365L307 364z"/>
<path style="fill:#fbc88b; stroke:none;" d="M303 365L304 366L303 365z"/>
<path style="fill:#fdddb8; stroke:none;" d="M304 365L305 366L304 365z"/>
<path style="fill:#fbc88b; stroke:none;" d="M229 366L230 367L229 366M300 366L301 367L300 366z"/>
<path style="fill:#fdddb8; stroke:none;" d="M301 366L302 367L301 366M229 367L230 368L229 367z"/>
<path style="fill:#fbc88b; stroke:none;" d="M298 367L299 368L298 367M294 368L295 369L294 368z"/>
<path style="fill:#fdddb8; stroke:none;" d="M295.667 368.333L296.333 368.667L295.667 368.333M230 369L231 370L230 369z"/>
<path style="fill:#fbc88b; stroke:none;" d="M291 369L292 370L291 369z"/>
<path style="fill:#fdddb8; stroke:none;" d="M292 369L293 370L292 369z"/>
<path style="fill:#fbc88b; stroke:none;" d="M288 370L289 371L288 370z"/>
<path style="fill:#fdddb8; stroke:none;" d="M289 370L290 371L289 370M231 371L232 372L231 371z"/>
<path style="fill:#fbc88b; stroke:none;" d="M284 371L285 372L284 371z"/>
<path style="fill:#fdddb8; stroke:none;" d="M285 371L286 372L285 371M232 372L233 373L232 372z"/>
<path style="fill:#fbc88b; stroke:none;" d="M280 372L281 373L280 372z"/>
<path style="fill:#fdddb8; stroke:none;" d="M281 372L282 373L281 372z"/>
<path style="fill:#fbc88b; stroke:none;" d="M234 373L235 374L234 373M275.667 373.333L276.333 373.667L275.667 373.333z"/>
<path style="fill:#fdddb8; stroke:none;" d="M277 373L278 374L277 373z"/>
<path style="fill:#fbc88b; stroke:none;" d="M236 374L237 375L236 374M270.667 374.333L271.333 374.667L270.667 374.333z"/>
<path style="fill:#fdddb8; stroke:none;" d="M272.667 374.333L273.333 374.667L272.667 374.333M239 375L240 376L239 375z"/>
<path style="fill:#fbc88b; stroke:none;" d="M240 375L241 376L240 375M264.667 375.333L265.333 375.667L264.667 375.333z"/>
<path style="fill:#fdddb8; stroke:none;" d="M266.667 375.333L267.333 375.667L266.667 375.333M243 376L243 377L247 377L243 376z"/>
<path style="fill:#fbc88b; stroke:none;" d="M247 376L247 377L258 377L247 376z"/>
<path style="fill:#fdddb8; stroke:none;" d="M258 376L258 377L261 377L258 376z"/>
</svg>
